<svg width="118" height="23" viewBox="0 0 118 23" fill="none" xmlns="http://www.w3.org/2000/svg">
<path d="M69.3841 14.8951C68.8506 14.2301 69.0032 13.9343 69.3841 13.3399C69.3909 13.3331 73.7952 7.32636 74.249 5.28929L74.2517 5.28793C74.4772 4.54557 74.2517 4 73.1613 4H69.5532C68.6347 4 68.2112 4.46821 67.9843 4.99207C67.9843 4.99207 66.1472 9.33221 63.5484 12.1456C62.7096 12.9585 62.3218 13.2191 61.8639 13.2191C61.6384 13.2191 61.2878 12.9585 61.2878 12.2161V5.28793C61.2878 4.39764 61.0307 4 60.2703 4H54.5968C54.0207 4 53.6783 4.41529 53.6783 4.80207C53.6783 5.64621 54.9777 5.84029 55.1125 8.21529V13.3684C55.1125 14.4975 54.9048 14.7051 54.4442 14.7051C53.2176 14.7051 50.2407 10.3474 48.4765 5.35986C48.1203 4.39221 47.7724 4.00136 46.847 4.00136H43.2375C42.2076 4.00136 42 4.46957 42 4.99343C42 5.919 43.2265 10.5211 47.7037 16.6011C50.6876 20.7512 54.8897 23 58.7123 23C61.01 23 61.2905 22.5006 61.2905 21.6415C61.2905 17.6759 61.0829 17.3014 62.2338 17.3014C62.7673 17.3014 63.6859 17.5619 65.8309 19.5637C68.2827 21.9374 68.6856 23 70.0578 23H73.666C74.6945 23 75.2156 22.5006 74.9159 21.5153C74.2297 19.4429 69.5931 15.1801 69.3841 14.8951Z" fill="#BFBFC7"/>
<path d="M16.0448 1H5.9552C2.67145 1 0 3.67145 0 6.9552V17.045C0 20.3286 2.67145 23 5.9552 23H16.045C19.3286 23 22 20.3286 22 17.045V6.9552C22 3.67145 19.3286 1 16.0448 1V1ZM11 18.0155C7.68301 18.0155 4.98454 15.317 4.98454 12C4.98454 8.68301 7.68301 5.98454 11 5.98454C14.317 5.98454 17.0155 8.68301 17.0155 12C17.0155 15.317 14.317 18.0155 11 18.0155ZM17.1593 7.40318C16.1791 7.40318 15.3818 6.60591 15.3818 5.62569C15.3818 4.64546 16.1791 3.84802 17.1593 3.84802C18.1395 3.84802 18.937 4.64546 18.937 5.62569C18.937 6.60591 18.1395 7.40318 17.1593 7.40318Z" fill="#BFBFC7"/>
<path d="M10.9999 8.33325C8.97819 8.33325 7.33325 9.97806 7.33325 11.9999C7.33325 14.0216 8.97819 15.6665 10.9999 15.6665C13.0217 15.6665 14.6665 14.0216 14.6665 11.9999C14.6665 9.97806 13.0217 8.33325 10.9999 8.33325Z" fill="#BFBFC7"/>
<path d="M17.1591 5.13773C16.8903 5.13773 16.6714 5.3566 16.6714 5.62549C16.6714 5.89438 16.8903 6.11325 17.1591 6.11325C17.4282 6.11325 17.6471 5.89455 17.6471 5.62549C17.6471 5.35643 17.4282 5.13773 17.1591 5.13773Z" fill="#BFBFC7"/>
<path d="M117.994 23V22.9991H118V14.7017C118 10.6425 117.117 7.51569 112.324 7.51569C110.02 7.51569 108.474 8.76755 107.842 9.95438H107.776V7.89464H103.231V22.9991H107.963V15.5199C107.963 13.5507 108.34 11.6465 110.804 11.6465C113.231 11.6465 113.267 13.8938 113.267 15.6462V23H117.994Z" fill="#BFBFC7"/>
<path d="M95.3772 7.89474H100.115V22.9992H95.3772V7.89474Z" fill="#BFBFC7"/>
<path d="M97.7441 0C96.2292 0 95 1.21699 95 2.71678C95 4.21657 96.2292 5.45901 97.7441 5.45901C99.259 5.45901 100.488 4.21657 100.488 2.71678C100.487 1.21699 99.258 0 97.7441 0V0Z" fill="#BFBFC7"/>
</svg>
